<svg width="243" height="279" viewBox="0 0 243 279" fill="none" xmlns="http://www.w3.org/2000/svg">
<path d="M21.5051 264V256.25H1.80508V249.7L20.1551 229H29.6051V249.5H33.9551V256.25H29.6051V264H21.5051ZM11.0551 249.5H21.5051V237.75L11.0551 249.5ZM52.5219 264.55C49.3552 264.55 46.5719 263.8 44.1719 262.3C41.8052 260.8 39.9552 258.7 38.6219 256C37.3219 253.267 36.6719 250.1 36.6719 246.5C36.6719 242.867 37.3219 239.7 38.6219 237C39.9552 234.3 41.8052 232.2 44.1719 230.7C46.5719 229.2 49.3552 228.45 52.5219 228.45C55.6885 228.45 58.4552 229.2 60.8219 230.7C63.2219 232.2 65.0719 234.3 66.3719 237C67.7052 239.7 68.3719 242.867 68.3719 246.5C68.3719 250.1 67.7052 253.267 66.3719 256C65.0719 258.7 63.2219 260.8 60.8219 262.3C58.4552 263.8 55.6885 264.55 52.5219 264.55ZM52.5219 257.55C54.1552 257.55 55.5552 257.117 56.7219 256.25C57.9219 255.35 58.8385 254.067 59.4719 252.4C60.1385 250.733 60.4719 248.767 60.4719 246.5C60.4719 244.2 60.1385 242.233 59.4719 240.6C58.8385 238.933 57.9219 237.667 56.7219 236.8C55.5552 235.9 54.1552 235.45 52.5219 235.45C50.8885 235.45 49.4719 235.9 48.2719 236.8C47.1052 237.667 46.1885 238.933 45.5219 240.6C44.8885 242.233 44.5719 244.2 44.5719 246.5C44.5719 248.767 44.8885 250.733 45.5219 252.4C46.1885 254.067 47.1052 255.35 48.2719 256.25C49.4719 257.117 50.8885 257.55 52.5219 257.55ZM90.9387 264V256.25H71.2387V249.7L89.5887 229H99.0387V249.5H103.389V256.25H99.0387V264H90.9387ZM80.4887 249.5H90.9387V237.75L80.4887 249.5ZM117.271 264V229H144.871V236.45H125.871V242.75H138.421V249.95H125.871V256.55H145.071V264H117.271ZM149.732 264V237.55H157.832V240.2C158.699 239.133 159.716 238.333 160.882 237.8C162.049 237.233 163.349 236.95 164.782 236.95C166.216 236.983 167.232 237.2 167.832 237.6V244.65C167.299 244.383 166.699 244.183 166.032 244.05C165.366 243.917 164.682 243.85 163.982 243.85C162.716 243.85 161.532 244.15 160.432 244.75C159.366 245.317 158.499 246.133 157.832 247.2V264H149.732ZM171.314 264V237.55H179.414V240.2C180.281 239.133 181.298 238.333 182.464 237.8C183.631 237.233 184.931 236.95 186.364 236.95C187.798 236.983 188.814 237.2 189.414 237.6V244.65C188.881 244.383 188.281 244.183 187.614 244.05C186.948 243.917 186.264 243.85 185.564 243.85C184.298 243.85 183.114 244.15 182.014 244.75C180.948 245.317 180.081 246.133 179.414 247.2V264H171.314ZM205.314 264.5C202.614 264.5 200.181 263.9 198.014 262.7C195.847 261.467 194.131 259.817 192.864 257.75C191.597 255.683 190.964 253.367 190.964 250.8C190.964 248.233 191.597 245.917 192.864 243.85C194.131 241.75 195.847 240.1 198.014 238.9C200.181 237.667 202.614 237.05 205.314 237.05C208.014 237.05 210.447 237.667 212.614 238.9C214.781 240.1 216.497 241.75 217.764 243.85C219.031 245.917 219.664 248.233 219.664 250.8C219.664 253.367 219.031 255.683 217.764 257.75C216.497 259.817 214.781 261.467 212.614 262.7C210.447 263.9 208.014 264.5 205.314 264.5ZM205.314 257.5C206.547 257.5 207.647 257.2 208.614 256.6C209.581 256 210.347 255.2 210.914 254.2C211.481 253.167 211.764 252.033 211.764 250.8C211.764 249.533 211.481 248.4 210.914 247.4C210.347 246.367 209.564 245.55 208.564 244.95C207.597 244.35 206.514 244.05 205.314 244.05C204.114 244.05 203.014 244.35 202.014 244.95C201.047 245.55 200.281 246.367 199.714 247.4C199.147 248.4 198.864 249.533 198.864 250.8C198.864 252.033 199.147 253.167 199.714 254.2C200.281 255.2 201.047 256 202.014 256.6C203.014 257.2 204.114 257.5 205.314 257.5ZM223.463 264V237.55H231.563V240.2C232.43 239.133 233.446 238.333 234.613 237.8C235.78 237.233 237.08 236.95 238.513 236.95C239.946 236.983 240.963 237.2 241.563 237.6V244.65C241.03 244.383 240.43 244.183 239.763 244.05C239.096 243.917 238.413 243.85 237.713 243.85C236.446 243.85 235.263 244.15 234.163 244.75C233.096 245.317 232.23 246.133 231.563 247.2V264H223.463Z" fill="#5534DA"/>
<g clip-path="url(#clip0_13059_14267)">
<path d="M221.975 14.5334C221.899 14.3812 221.722 14.2797 221.544 14.3304C220 14.9899 218.456 15.5479 216.861 16.1313C212.481 17.7545 207.924 18.8198 203.367 19.8851C198.152 21.0518 192.836 21.8888 187.646 23.1824C183.165 24.273 178.709 25.5919 174.405 27.3166C171.165 28.5848 167.975 29.9544 164.987 31.7045C161.443 33.6575 158.582 36.5744 155.798 39.4658C153.241 42.1544 150.658 44.8429 148.405 47.8104C147.139 49.4844 146.076 51.3106 145.063 53.1368C146.658 47.1003 148.886 41.013 152.962 36.1939C153.266 35.8134 152.911 35.3569 152.481 35.5598C151.443 36.0671 150.481 36.7265 149.494 37.3353C141.949 42.4587 135.215 48.825 129.418 55.8507C126.582 59.3255 123.848 62.8764 121.595 66.7571C118.987 71.2972 117.013 76.1923 115.595 81.2397C115.443 78.2468 115.696 75.2539 116.101 72.2864C116.177 71.7537 116.253 71.2464 116.279 70.7138C116.279 70.3587 116.38 69.8514 116.025 69.6485C115.772 69.5217 115.519 69.6485 115.342 69.8514C115.114 70.0797 114.937 70.3334 114.734 70.587C114.329 71.1196 113.924 71.6776 113.544 72.2356C112.279 74.0364 111.139 75.9387 110.152 77.9171C107.722 82.9137 105.494 87.9611 103.241 93.0338C100.962 98.1065 98.8608 103.281 96.6583 108.379C94.557 113.198 92.2532 117.941 89.8735 122.633C88.5823 125.144 87.2659 127.655 85.7216 130.039C85.0634 131.054 84.3798 132.043 83.6709 133.007C83.7722 132.804 83.8735 132.626 83.9747 132.424C86.0507 128.34 87.4684 123.977 88.7596 119.59C89.8228 116.774 90.8861 113.959 92.076 111.22C93.4684 108.1 94.7089 104.929 95.8988 101.734C98.2785 95.697 101.165 89.9141 104.456 84.3087C106.582 80.6817 108.861 77.1308 110.937 73.4531C112.886 70.0036 114.43 66.3513 116.203 62.8257C117.519 60.1879 118.861 57.5501 120 54.8362C120.329 54.0753 120.658 53.289 120.962 52.5027C121.089 52.1223 121.241 51.7164 121.317 51.3106C121.317 51.1584 121.342 50.9809 121.241 50.8287C121.013 50.4736 120.557 50.6004 120.279 50.8287C119.468 51.4374 118.709 52.0715 117.924 52.731C115.392 54.8869 112.76 56.916 110.051 58.8436C115.848 51.7925 122.025 44.5893 124.81 35.712C125.013 34.9511 125.57 33.0488 125.013 32.4147C124.633 32.085 124.203 32.5415 123.975 32.8205C121.62 35.7627 119.139 38.6034 116.38 41.1652C117.443 39.4912 118.456 37.7664 119.367 35.991C120.886 32.9474 122.38 29.8784 123.62 26.7079C125.089 22.8273 126.203 18.8452 127.367 14.8884C128.557 10.5766 129.62 6.21408 130.911 1.92763C131.038 1.52181 131.165 1.11599 131.241 0.684809C131.241 0.557991 131.291 0.405809 131.241 0.278991C131.165 0.0507184 130.886 -0.101463 130.658 -0.0253725C130.456 0.0253548 130.253 0.152173 130.076 0.304355C127.494 2.73926 125.19 5.45317 122.709 7.96417C120.886 9.84108 119.038 11.7434 117.291 13.6964C113.772 17.7038 110.633 22.0664 108.152 26.784C105.899 31.0704 104.253 35.712 103.241 40.455C101.873 46.6437 101.418 52.9846 100.557 59.2494C99.5697 56.5355 98.9874 53.6694 98.8608 50.7526C98.8102 49.7888 98.7596 48.7743 98.7089 47.7344C98.7089 47.2524 98.7089 46.2125 97.9747 46.4408C97.7469 46.5676 97.6203 46.8213 97.4937 47.0749C97.2659 47.5314 97.0633 48.0134 96.8608 48.4953C96.2279 49.9664 95.519 51.3867 94.8608 52.8324C92.9874 56.8906 91.3671 61.101 90.5317 65.4889C89.7975 69.0905 89.4178 72.7683 89.4178 76.4206C89.4178 81.5441 90.2026 86.5914 90.1773 91.7403C88.7849 89.4829 87.3671 87.2002 86.7849 84.5624C86.4811 83.3195 86.2532 82.0767 86.0507 80.8339C86.0001 80.4788 85.9241 80.0984 85.8735 79.7433C85.8228 79.4896 85.8228 79.1599 85.6203 78.9824C85.1646 78.6273 84.8608 79.236 84.7596 79.6164C83.8988 82.3557 83.4684 85.2472 83.3671 88.1386C83.2406 91.0554 83.519 93.9723 83.7975 96.8891C84.0507 99.5269 84.3292 102.165 84.5064 104.828C84.3798 105.792 84.3292 106.756 84.2532 107.719C83.9494 112.462 83.4178 117.205 82.5064 121.872C81.8988 125.626 81.114 129.329 79.7975 132.931C79.038 135.493 78.0507 137.978 76.8102 140.337C76.6077 140.667 76.4304 141.022 76.2532 141.352C73.7975 145.739 71.5444 150.229 69.0634 154.591C67.5697 157.153 66.1266 159.766 64.7849 162.429C63.7975 164.153 62.8861 165.904 62.1013 167.704C61.4178 169.226 60.7596 170.773 60.152 172.321C59.9241 172.98 59.2659 174.299 59.6203 174.958C60.152 175.44 60.5823 174.806 60.9115 174.121C60.9874 174.045 61.0634 173.969 61.114 173.893C61.3165 173.614 61.4937 173.335 61.6456 173.031C62.0507 172.346 62.4558 171.686 62.8355 171.027C64.5064 168.11 66.1266 165.168 67.7722 162.226C70.2279 157.66 72.9115 153.222 75.6203 148.783C76.076 148.048 76.5064 147.312 76.9621 146.551C77.519 145.739 78.076 144.953 78.6583 144.142C79.6963 142.721 80.8102 141.352 82.0254 140.083C83.519 138.435 85.3925 136.837 87.1393 135.442C89.6709 133.387 91.9494 131.054 94.1773 128.695C99.3671 123.039 104.253 117.104 109.317 111.321C112.684 107.263 116.304 103.357 120.177 99.8059C123.038 97.3963 126 95.0883 129.013 92.8816C133.823 89.4322 138.886 86.3632 143.671 82.863C149.317 78.7287 154.836 74.4169 159.899 69.5724C160.051 69.3949 160.228 69.192 160.127 68.9384C160.025 68.6086 159.62 68.6594 159.342 68.7354C158.203 69.0398 157.114 69.4964 156 69.7754C154.861 70.029 153.696 70.2573 152.557 70.4602C149.443 71.0689 146.253 71.3225 143.089 71.3479C144.886 70.6631 146.709 70.0036 148.532 69.3949C153.063 68.0253 157.646 66.8585 162.076 65.1845C169.949 62.4706 176.836 57.6008 183.139 52.2491C184.684 50.9555 186.253 49.662 187.671 48.2163C187.924 47.9119 188.304 47.6329 188.354 47.2017C188.354 46.6944 187.747 46.6944 187.367 46.7959C183.823 47.5568 180.253 48.2924 176.658 48.6728C174.279 48.9011 171.798 49.0786 169.418 48.6474C172.177 47.8104 174.962 47.0749 177.798 46.4915C180.43 45.9589 183.089 45.4516 185.646 44.6654C189.62 43.4986 193.19 41.2159 196.228 38.4259C198.051 36.6758 199.747 34.7989 201.418 32.8966C203.19 30.8675 204.785 28.6863 206.658 26.7333C209.114 24.1462 211.798 21.7874 214.658 19.6822C216.785 18.0082 219.063 16.5878 221.418 15.2435C221.595 15.1421 221.772 15.0914 221.949 14.9899C222.101 14.8884 222.152 14.7109 222.076 14.5334H221.975ZM83.6203 135.036C83.6203 135.036 83.6203 135.036 83.5697 135.036H83.595H83.6203ZM89.6709 107.77C91.6203 101.378 93.4937 94.9614 95.519 88.5952C97.4178 82.0767 99.3165 75.5583 101.317 69.0905C103.544 61.4307 105.317 53.6441 107.671 46.0096C109.342 40.6325 111.215 35.3062 113.317 30.0813C115.215 25.3636 117.342 20.7221 120.228 16.5117C117.873 22.1171 115.443 27.6717 113.392 33.3785C111.418 38.3752 109.747 43.4733 108.304 48.6474C104.785 60.0864 102.658 71.9059 99.2659 83.3703C97.8228 88.443 96.2026 93.465 94.4558 98.4616C93.2152 102.038 91.7469 105.614 90.5317 109.19C87.8228 117.129 85.3165 125.144 82.2279 132.956C82.1773 133.007 82.1266 133.058 82.076 133.108C81.9747 133.083 81.8735 133.108 81.7975 133.134C82.3292 131.46 82.8355 129.76 83.2659 128.061C85.3165 121.264 87.5697 114.542 89.6709 107.77V107.77ZM165.772 45.4263C162.836 47.4554 159.899 49.4844 157.114 51.6911C152.481 55.3942 147.975 59.2241 143.494 63.1047C140.886 65.4382 138.532 68.0506 136.076 70.5616C133.646 73.098 131.19 75.5836 128.886 78.2214C125.823 81.6455 122.684 85.0189 119.747 88.5698C117.165 91.6134 114.81 94.86 112.481 98.1065C110.76 100.415 109.013 102.723 107.392 105.107C105.468 107.872 103.468 110.56 101.544 113.325C99.6203 116.115 97.7216 118.905 95.8482 121.72C94.6583 123.496 93.4684 125.296 92.076 126.945C90.4304 128.898 88.7342 130.952 86.8608 132.753C86.152 133.387 85.4684 134.021 84.7849 134.681C84.7849 134.681 84.7849 134.681 84.7596 134.681C84.4304 134.605 84.4304 134.3 84.5064 134.047C85.8482 132.55 87.1899 131.079 88.5064 129.557C90.1013 127.706 91.5444 125.728 92.8861 123.698C100.025 113.249 107.241 102.824 114.911 92.7294C117.772 89.001 120.734 85.3233 123.924 81.8738C129.418 76.0402 135.089 70.4094 140.76 64.728C148.076 57.4233 155.873 50.5751 164.354 44.6654C171.114 40.0999 178.304 36.1939 185.722 32.8205C178.785 36.549 172.304 41.0891 165.772 45.4516V45.4263Z" fill="#5534DA"/>
<path d="M172.001 173.766C171.798 174.197 171.519 174.578 171.216 174.933C168.026 178.256 163.317 179.98 158.861 180.868C154.355 181.807 149.722 180.944 145.317 179.955C149.697 176.328 154.608 172.092 155.595 166.183C156.557 159.106 149.899 154.515 143.494 154.211C122.076 153.501 102.735 165.143 84.5828 175.212C77.6967 178.991 70.0258 183.836 61.8486 181.933C60.7094 181.604 59.5448 180.868 59.1904 179.651C59.2157 179.321 59.0638 178.94 58.7347 178.788C56.203 178.281 58.0005 181.857 59.1651 182.491C69.2157 188.249 83.1904 177.571 92.0765 172.955C101.241 167.933 110.709 162.86 120.684 159.588C128.963 157.128 138.76 154.388 147.292 156.697C151.646 157.965 155.038 162.53 153.646 167.096C151.899 172.371 147.368 176.1 143.14 179.397C136.482 177.799 129.57 176.049 122.684 177.038C118.887 177.723 114.507 179.067 112.608 182.72C109.646 188.705 117.064 189.872 121.368 189.745C129.444 189.492 137.14 186.169 143.52 181.274C150.76 183.176 157.925 183.886 164.988 180.893C168.178 179.422 171.798 177.799 173.519 174.527C174.051 173.538 172.482 172.726 171.975 173.716L172.001 173.766ZM121.14 188.046C118.811 187.868 114.709 188.198 113.722 185.586C113.57 182.288 117.216 180.361 119.95 179.524C126.963 177.393 134.355 179.169 141.292 180.792C135.444 185.078 128.431 187.843 121.14 188.046V188.046Z" fill="#5534DA"/>
</g>
<defs>
<clipPath id="clip0_13059_14267">
<rect width="164.557" height="189.796" fill="white" transform="translate(57.4434)"/>
</clipPath>
</defs>
</svg>
