<svg width="121" height="39" viewBox="0 0 121 39" fill="none" xmlns="http://www.w3.org/2000/svg">
<g clip-path="url(#clip0_12554_8459)">
<path d="M38.9945 6.53225C38.9812 6.50574 38.9502 6.48806 38.9191 6.4969C38.6489 6.6118 38.3786 6.70902 38.0995 6.81066C37.3331 7.09349 36.5356 7.2791 35.7381 7.4647C34.8255 7.66798 33.8951 7.81382 32.9869 8.0392C32.2027 8.22922 31.4229 8.45902 30.6698 8.75953C30.1027 8.98048 29.5445 9.21912 29.0217 9.52404C28.4014 9.86432 27.9008 10.3725 27.4134 10.8763C26.966 11.3448 26.5141 11.8132 26.1198 12.3302C25.8983 12.6219 25.7122 12.9401 25.535 13.2583C25.8141 12.2065 26.204 11.1459 26.9172 10.3062C26.9704 10.24 26.9084 10.1604 26.8331 10.1958C26.6514 10.2841 26.4831 10.399 26.3103 10.5051C24.99 11.3978 23.8115 12.507 22.797 13.7311C22.3008 14.3365 21.8223 14.9552 21.428 15.6314C20.9717 16.4224 20.6261 17.2753 20.378 18.1547C20.3514 17.6333 20.3957 17.1118 20.4666 16.5948C20.4799 16.5019 20.4932 16.4136 20.4976 16.3208C20.4976 16.2589 20.5153 16.1705 20.4533 16.1352C20.409 16.1131 20.3647 16.1352 20.3337 16.1705C20.2938 16.2103 20.2628 16.2545 20.2274 16.2987C20.1565 16.3915 20.0856 16.4887 20.0191 16.5859C19.7976 16.8997 19.5983 17.2311 19.4255 17.5758C19.0002 18.4464 18.6103 19.3258 18.216 20.2097C17.8172 21.0935 17.4495 21.995 17.0641 22.8833C16.6964 23.7229 16.2932 24.5493 15.8767 25.3668C15.6508 25.8043 15.4204 26.2418 15.1502 26.6573C15.035 26.834 14.9153 27.0064 14.7913 27.1743C14.809 27.1389 14.8267 27.108 14.8445 27.0727C15.2077 26.3612 15.4558 25.6011 15.6818 24.8365C15.8679 24.346 16.054 23.8555 16.2622 23.3782C16.5058 22.8347 16.7229 22.2823 16.9312 21.7254C17.3476 20.6737 17.8527 19.6661 18.4286 18.6894C18.8008 18.0575 19.1995 17.4388 19.5628 16.798C19.904 16.197 20.1742 15.5607 20.4843 14.9464C20.7147 14.4868 20.9495 14.0272 21.1489 13.5543C21.2065 13.4218 21.2641 13.2848 21.3172 13.1478C21.3394 13.0815 21.366 13.0108 21.3793 12.9401C21.3793 12.9136 21.3837 12.8826 21.366 12.8561C21.3261 12.7942 21.2464 12.8163 21.1976 12.8561C21.0558 12.9622 20.9229 13.0727 20.7856 13.1876C20.3426 13.5632 19.8818 13.9167 19.4077 14.2526C20.4223 13.024 21.5033 11.769 21.9907 10.2223C22.0261 10.0897 22.1236 9.75826 22.0261 9.64778C21.9596 9.59033 21.8843 9.66988 21.8445 9.71849C21.4324 10.2311 20.9983 10.7261 20.5153 11.1724C20.7014 10.8807 20.8786 10.5802 21.0381 10.2709C21.304 9.74059 21.5653 9.20586 21.7824 8.65346C22.0394 7.97733 22.2343 7.28351 22.4381 6.59412C22.6464 5.84286 22.8324 5.08276 23.0584 4.33591C23.0805 4.26521 23.1027 4.1945 23.116 4.11937C23.116 4.09728 23.1248 4.07076 23.116 4.04867C23.1027 4.00889 23.054 3.98238 23.0141 3.99564C22.9786 4.00447 22.9432 4.02657 22.9122 4.05309C22.4603 4.47733 22.0571 4.95018 21.6229 5.38768C21.304 5.7147 20.9805 6.04614 20.6748 6.38642C20.059 7.08465 19.5096 7.84475 19.0755 8.66672C18.6812 9.41357 18.3932 10.2223 18.216 11.0487C17.9767 12.1269 17.897 13.2317 17.7464 14.3233C17.5736 13.8504 17.4717 13.3511 17.4495 12.8429C17.4407 12.6749 17.4318 12.4982 17.4229 12.317C17.4229 12.233 17.4229 12.0518 17.2945 12.0916C17.2546 12.1137 17.2324 12.1579 17.2103 12.2021C17.1704 12.2816 17.135 12.3656 17.0995 12.4495C16.9888 12.7059 16.8647 12.9533 16.7495 13.2052C16.4217 13.9123 16.1381 14.6459 15.9919 15.4104C15.8634 16.0379 15.797 16.6787 15.797 17.3151C15.797 18.2078 15.9343 19.0872 15.9299 19.9843C15.6862 19.591 15.4381 19.1932 15.3362 18.7336C15.2831 18.5171 15.2432 18.3006 15.2077 18.084C15.1989 18.0222 15.1856 17.9559 15.1767 17.894C15.1679 17.8498 15.1679 17.7924 15.1324 17.7614C15.0527 17.6995 14.9995 17.8056 14.9818 17.8719C14.8312 18.3492 14.7558 18.853 14.7381 19.3567C14.716 19.865 14.7647 20.3732 14.8134 20.8814C14.8577 21.341 14.9065 21.8006 14.9375 22.2646C14.9153 22.4325 14.9065 22.6004 14.8932 22.7684C14.84 23.5948 14.747 24.4211 14.5875 25.2343C14.4812 25.8883 14.3438 26.5335 14.1134 27.161C13.9805 27.6074 13.8077 28.0405 13.5907 28.4514C13.5552 28.5089 13.5242 28.5708 13.4932 28.6282C13.0634 29.3927 12.6691 30.1749 12.235 30.935C11.9736 31.3814 11.721 31.8365 11.4862 32.3006C11.3134 32.6011 11.154 32.906 11.0166 33.2198C10.897 33.4849 10.7818 33.7545 10.6755 34.024C10.6356 34.1389 10.5204 34.3687 10.5824 34.4836C10.6755 34.5676 10.7508 34.4571 10.8084 34.3378C10.8217 34.3246 10.835 34.3113 10.8438 34.298C10.8793 34.2494 10.9103 34.2008 10.9369 34.1478C11.0077 34.0285 11.0786 33.9136 11.1451 33.7987C11.4375 33.2905 11.721 32.7778 12.009 32.2652C12.4388 31.4698 12.9084 30.6964 13.3824 29.923C13.4622 29.7949 13.5375 29.6667 13.6172 29.5341C13.7147 29.3927 13.8122 29.2557 13.9141 29.1143C14.0957 28.8668 14.2907 28.6282 14.5033 28.4073C14.7647 28.12 15.0926 27.8416 15.3983 27.5985C15.8413 27.2406 16.24 26.834 16.6299 26.423C17.5381 25.4376 18.3932 24.4035 19.2793 23.3959C19.8685 22.6888 20.5021 22.0083 21.1799 21.3896C21.6805 20.9698 22.1989 20.5676 22.7261 20.1831C23.5679 19.5821 24.454 19.0474 25.2913 18.4376C26.2793 17.7172 27.2451 16.966 28.1312 16.1219C28.1577 16.091 28.1888 16.0556 28.171 16.0114C28.1533 15.954 28.0824 15.9628 28.0337 15.9761C27.8343 16.0291 27.6438 16.1086 27.4489 16.1573C27.2495 16.2014 27.0457 16.2412 26.8464 16.2766C26.3014 16.3826 25.7432 16.4268 25.1894 16.4312C25.504 16.3119 25.8229 16.197 26.1419 16.091C26.935 15.8523 27.7369 15.649 28.5122 15.3574C29.89 14.8845 31.0951 14.036 32.1983 13.1036C32.4685 12.8782 32.7432 12.6528 32.9913 12.4009C33.0356 12.3479 33.1021 12.2993 33.1109 12.2242C33.1109 12.1358 33.0046 12.1358 32.9381 12.1535C32.3179 12.286 31.6932 12.4142 31.0641 12.4805C30.6476 12.5203 30.2134 12.5512 29.797 12.4761C30.2799 12.3302 30.7672 12.2021 31.2634 12.1004C31.7242 12.0076 32.1894 11.9192 32.6369 11.7823C33.3324 11.579 33.9571 11.1812 34.4888 10.6951C34.8077 10.3902 35.1046 10.0632 35.397 9.73175C35.7071 9.37821 35.9862 8.99816 36.3141 8.65788C36.7438 8.20713 37.2134 7.79614 37.7141 7.42935C38.0862 7.13768 38.485 6.89021 38.897 6.65599C38.928 6.63831 38.959 6.62947 38.99 6.6118C39.0166 6.59412 39.0255 6.56319 39.0122 6.53225H38.9945ZM14.7824 27.5278C14.7824 27.5278 14.7824 27.5278 14.7736 27.5278H14.778H14.7824ZM15.8413 22.7772C16.1824 21.6636 16.5103 20.5455 16.8647 19.4363C17.197 18.3006 17.5293 17.1648 17.8793 16.0379C18.2691 14.7033 18.5793 13.3466 18.9913 12.0165C19.2837 11.0796 19.6115 10.1516 19.9793 9.24122C20.3115 8.41925 20.6837 7.61054 21.1888 6.87695C20.7767 7.85359 20.3514 8.82139 19.9926 9.81571C19.647 10.6863 19.3546 11.5746 19.1021 12.4761C18.4862 14.4691 18.1141 16.5285 17.5204 18.5259C17.2679 19.4098 16.9843 20.2848 16.6786 21.1554C16.4615 21.7785 16.2046 22.4016 15.9919 23.0247C15.5179 24.4079 15.0793 25.8043 14.5388 27.1655C14.5299 27.1743 14.521 27.1831 14.5122 27.192C14.4945 27.1876 14.4767 27.192 14.4634 27.1964C14.5565 26.9047 14.6451 26.6086 14.7204 26.3126C15.0793 25.1282 15.4736 23.9571 15.8413 22.7772ZM29.159 11.9148C28.6451 12.2684 28.1312 12.6219 27.6438 13.0064C26.8331 13.6516 26.0445 14.3189 25.2603 14.995C24.804 15.4016 24.3919 15.8567 23.9622 16.2942C23.5369 16.7362 23.1071 17.1692 22.704 17.6288C22.1679 18.2254 21.6185 18.8132 21.1046 19.4319C20.6527 19.9622 20.2407 20.5278 19.8331 21.0935C19.5318 21.4956 19.2261 21.8978 18.9426 22.3132C18.6058 22.7949 18.2558 23.2633 17.9191 23.745C17.5824 24.2311 17.2502 24.7172 16.9223 25.2078C16.7141 25.5171 16.5058 25.8309 16.2622 26.1181C15.9742 26.4584 15.6774 26.8163 15.3495 27.1301C15.2255 27.2406 15.1058 27.3511 14.9862 27.466C14.9862 27.466 14.9862 27.466 14.9818 27.466C14.9242 27.4527 14.9242 27.3997 14.9375 27.3555C15.1723 27.0948 15.4071 26.8384 15.6375 26.5733C15.9166 26.2507 16.1691 25.906 16.404 25.5525C17.6533 23.7317 18.916 21.9155 20.2584 20.1566C20.759 19.507 21.2774 18.8662 21.8356 18.2652C22.797 17.2488 23.7894 16.2677 24.7818 15.2778C26.0622 14.0051 27.4267 12.8119 28.9109 11.7823C30.0938 10.9868 31.3521 10.3062 32.6502 9.71849C31.4362 10.3681 30.3021 11.1591 29.159 11.9192V11.9148Z" fill="white"/>
<path d="M30.2493 34.2759C30.2138 34.351 30.1651 34.4173 30.1119 34.4792C29.5537 35.0581 28.7296 35.3586 27.9499 35.5132C27.1613 35.6768 26.3505 35.5265 25.5796 35.3542C26.3461 34.7222 27.2056 33.9842 27.3784 32.9545C27.5467 31.7216 26.3815 30.9217 25.2607 30.8687C21.5126 30.7449 18.1277 32.7733 14.9512 34.5278C13.7461 35.1862 12.4037 36.0303 10.9727 35.6989C10.7733 35.6414 10.5695 35.5132 10.5075 35.3011C10.5119 35.2437 10.4853 35.1774 10.4277 35.1509C9.9847 35.0625 10.2993 35.6856 10.5031 35.7961C12.2619 36.7992 14.7075 34.9388 16.2626 34.1345C17.8663 33.2595 19.5233 32.3756 21.2689 31.8055C22.7176 31.3769 24.4322 30.8996 25.9252 31.3018C26.6872 31.5227 27.2809 32.3182 27.0372 33.1136C26.7315 34.0328 25.9385 34.6824 25.1986 35.2569C24.0334 34.9785 22.8239 34.6736 21.6189 34.846C20.9543 34.9653 20.1879 35.1995 19.8556 35.8358C19.3372 36.8788 20.6353 37.0821 21.3885 37.06C22.8018 37.0158 24.1486 36.4369 25.2651 35.584C26.5322 35.9154 27.786 36.0391 29.022 35.5177C29.5803 35.2614 30.2138 34.9785 30.5151 34.4084C30.6081 34.2361 30.3334 34.0947 30.2448 34.267L30.2493 34.2759ZM21.3486 36.7639C20.941 36.7329 20.2233 36.7904 20.0505 36.3352C20.0239 35.7607 20.6619 35.4249 21.1404 35.279C22.3676 34.9078 23.6613 35.2172 24.8752 35.5C23.8518 36.2468 22.6246 36.7285 21.3486 36.7639Z" fill="white"/>
</g>
<path d="M44.0304 29.5066V16.8716H39V13.9353H52.699V16.8716H47.6685V29.5066H44.0304Z" fill="white"/>
<path d="M60.6958 29.5066V27.1709L60.4713 26.6593V22.4772C60.4713 21.7358 60.2392 21.1574 59.7751 20.7422C59.3259 20.3269 58.6298 20.1193 57.6866 20.1193C57.0428 20.1193 56.4065 20.2231 55.7777 20.4307C55.1639 20.6235 54.6399 20.8905 54.2057 21.2315L52.9481 18.8069C53.6068 18.3472 54.4003 17.9912 55.3285 17.7391C56.2568 17.487 57.2 17.361 58.1582 17.361C59.9997 17.361 61.4294 17.791 62.4475 18.6512C63.4656 19.5113 63.9746 20.8534 63.9746 22.6775V29.5066H60.6958ZM57.0128 29.6845C56.0696 29.6845 55.2612 29.5288 54.5875 29.2174C53.9137 28.8911 53.3972 28.4537 53.0379 27.905C52.6786 27.3563 52.4989 26.7408 52.4989 26.0586C52.4989 25.3468 52.6711 24.724 53.0154 24.1901C53.3748 23.6562 53.9362 23.241 54.6997 22.9444C55.4633 22.633 56.4589 22.4772 57.6866 22.4772H60.898V24.5015H58.0683C57.2449 24.5015 56.676 24.635 56.3616 24.9019C56.0622 25.1689 55.9124 25.5025 55.9124 25.9029C55.9124 26.3478 56.0846 26.7037 56.429 26.9707C56.7883 27.2228 57.2748 27.3488 57.8887 27.3488C58.4726 27.3488 58.9966 27.2154 59.4607 26.9484C59.9248 26.6667 60.2617 26.2588 60.4713 25.725L61.0102 27.3266C60.7557 28.0977 60.2916 28.6835 59.6179 29.0839C58.9442 29.4843 58.0758 29.6845 57.0128 29.6845Z" fill="white"/>
<path d="M70.6997 29.6845C69.6666 29.6845 68.671 29.5659 67.7129 29.3286C66.7696 29.0765 66.0211 28.7651 65.4671 28.3943L66.6349 25.9029C67.1888 26.244 67.8401 26.5258 68.5887 26.7482C69.3522 26.9558 70.1008 27.0597 70.8344 27.0597C71.6429 27.0597 72.2118 26.9633 72.5412 26.7705C72.8855 26.5777 73.0577 26.3108 73.0577 25.9697C73.0577 25.6879 72.9229 25.4803 72.6535 25.3468C72.3989 25.1985 72.0546 25.0873 71.6204 25.0131C71.1862 24.939 70.7072 24.8648 70.1832 24.7907C69.6741 24.7165 69.1576 24.6202 68.6336 24.5015C68.1096 24.368 67.6305 24.1753 67.1963 23.9232C66.7622 23.671 66.4103 23.33 66.1408 22.8999C65.8863 22.4698 65.7591 21.9137 65.7591 21.2315C65.7591 20.4752 65.9762 19.8079 66.4103 19.2295C66.8595 18.6512 67.5033 18.1989 68.3417 17.8726C69.1801 17.5315 70.1832 17.361 71.3509 17.361C72.1744 17.361 73.0128 17.4499 73.8661 17.6279C74.7195 17.8059 75.4307 18.0654 75.9996 18.4065L74.8318 20.8756C74.2479 20.5345 73.6565 20.3047 73.0577 20.186C72.4738 20.0526 71.9049 19.9858 71.3509 19.9858C70.5724 19.9858 70.0035 20.0897 69.6442 20.2973C69.2849 20.5049 69.1052 20.7718 69.1052 21.0981C69.1052 21.3947 69.2325 21.6171 69.487 21.7654C69.7565 21.9137 70.1083 22.0324 70.5425 22.1213C70.9766 22.2103 71.4482 22.2919 71.9573 22.366C72.4813 22.4253 73.0053 22.5217 73.5293 22.6552C74.0533 22.7887 74.5249 22.9815 74.9441 23.2336C75.3783 23.4708 75.7301 23.8045 75.9996 24.2346C76.2691 24.6498 76.4038 25.1985 76.4038 25.8807C76.4038 26.6222 76.1793 27.2821 75.7301 27.8605C75.281 28.424 74.6297 28.8689 73.7763 29.1951C72.9379 29.5214 71.9124 29.6845 70.6997 29.6845Z" fill="white"/>
<path d="M80.9519 27.0597L81.0418 22.8332L86.6786 17.5389H90.8556L85.4434 22.9889L83.6244 24.457L80.9519 27.0597ZM78.0549 29.5066V13.001H81.5583V29.5066H78.0549ZM87.0603 29.5066L82.9731 24.4793L85.1739 21.7877L91.3048 29.5066H87.0603Z" fill="white"/>
<path d="M92.3699 29.5066V17.5389H95.8732V29.5066H92.3699ZM94.1215 15.8706C93.4778 15.8706 92.9538 15.6852 92.5495 15.3145C92.1453 14.9437 91.9432 14.484 91.9432 13.9353C91.9432 13.3866 92.1453 12.9269 92.5495 12.5561C92.9538 12.1854 93.4778 12 94.1215 12C94.7653 12 95.2893 12.178 95.6936 12.5339C96.0978 12.875 96.2999 13.3199 96.2999 13.8686C96.2999 14.4469 96.0978 14.9289 95.6936 15.3145C95.3043 15.6852 94.7803 15.8706 94.1215 15.8706Z" fill="white"/>
<path d="M99.0409 29.5066V17.272C99.0409 15.9225 99.4451 14.8473 100.254 14.0465C101.062 13.2309 102.215 12.8231 103.712 12.8231C104.221 12.8231 104.708 12.875 105.172 12.9788C105.651 13.0826 106.055 13.2457 106.384 13.4682L105.464 15.9818C105.269 15.8483 105.052 15.7445 104.812 15.6704C104.573 15.5962 104.318 15.5592 104.049 15.5592C103.54 15.5592 103.143 15.7074 102.859 16.004C102.589 16.2858 102.454 16.7159 102.454 17.2942V18.4065L102.544 19.8969V29.5066H99.0409ZM97.177 20.4752V17.8059H105.554V20.4752H97.177Z" fill="white"/>
<path d="M108.535 34C107.906 34 107.285 33.9036 106.671 33.7108C106.057 33.518 105.556 33.2511 105.166 32.91L106.446 30.4408C106.716 30.6781 107.023 30.8635 107.367 30.997C107.726 31.1304 108.078 31.1972 108.423 31.1972C108.917 31.1972 109.306 31.0785 109.59 30.8413C109.89 30.6188 110.159 30.2406 110.399 29.7068L111.028 28.2386L111.297 27.8605L115.631 17.5389H119L113.543 30.2406C113.154 31.2046 112.704 31.9609 112.195 32.5096C111.701 33.0583 111.147 33.4439 110.534 33.6663C109.935 33.8888 109.269 34 108.535 34ZM110.601 29.9737L105.211 17.5389H108.827L113.004 27.549L110.601 29.9737Z" fill="white"/>
<defs>
<clipPath id="clip0_12554_8459">
<rect width="28.7975" height="33.0688" fill="white" transform="translate(10.2021 4)"/>
</clipPath>
</defs>
</svg>
