<svg width="24" height="28" viewBox="0 0 24 28" fill="none" xmlns="http://www.w3.org/2000/svg">
<g id="&#225;&#132;&#140;&#225;&#133;&#161;&#225;&#132;&#137;&#225;&#133;&#161;&#225;&#134;&#171; 1 1" clip-path="url(#clip0_12554_9351)">
<g id="Objects">
<g id="Group">
<path id="Vector" d="M23.625 2.07732C23.6141 2.05556 23.5887 2.04106 23.5632 2.04831C23.3415 2.14259 23.1197 2.22236 22.8907 2.30576C22.2618 2.53782 21.6075 2.69011 20.9532 2.84241C20.2043 3.0092 19.4409 3.12886 18.6957 3.31379C18.0523 3.46971 17.4125 3.65826 16.7945 3.90483C16.3292 4.08613 15.8712 4.28193 15.4422 4.53212C14.9333 4.81133 14.5225 5.22832 14.1227 5.64168C13.7555 6.02604 13.3847 6.41039 13.0612 6.83464C12.8794 7.07395 12.7268 7.33502 12.5813 7.5961C12.8104 6.73311 13.1303 5.86287 13.7155 5.17393C13.7591 5.11954 13.7083 5.05427 13.6465 5.08328C13.4974 5.1558 13.3593 5.25007 13.2175 5.3371C12.1342 6.06955 11.1673 6.97968 10.3348 7.98408C9.92766 8.48084 9.53506 8.98848 9.21153 9.54326C8.83711 10.1923 8.55356 10.8921 8.34999 11.6137C8.32818 11.1858 8.36453 10.758 8.4227 10.3337C8.4336 10.2576 8.44451 10.1851 8.44814 10.1089C8.44814 10.0582 8.46268 9.98563 8.41179 9.95662C8.37544 9.93849 8.33909 9.95663 8.31364 9.98563C8.28093 10.0183 8.25548 10.0545 8.2264 10.0908C8.16823 10.1669 8.11007 10.2467 8.05554 10.3265C7.87379 10.5839 7.7102 10.8559 7.56843 11.1387C7.21945 11.853 6.89956 12.5746 6.57602 13.2998C6.24886 14.025 5.94714 14.7647 5.63088 15.4935C5.32916 16.1825 4.99835 16.8605 4.65665 17.5313C4.47125 17.8903 4.28222 18.2493 4.06048 18.5901C3.96596 18.7352 3.86781 18.8766 3.76603 19.0144C3.78057 18.9854 3.79511 18.96 3.80965 18.931C4.10773 18.3472 4.31131 17.7235 4.4967 17.0962C4.64938 16.6937 4.80205 16.2913 4.97291 15.8996C5.17284 15.4536 5.35097 15.0004 5.52182 14.5435C5.86353 13.6805 6.27794 12.8538 6.75051 12.0525C7.05587 11.5339 7.38303 11.0263 7.68112 10.5005C7.96103 10.0074 8.18278 9.48524 8.43724 8.98123C8.62627 8.60413 8.81893 8.22702 8.98252 7.83904C9.02977 7.73026 9.07703 7.61785 9.12065 7.50545C9.13883 7.45106 9.16064 7.39304 9.17155 7.33502C9.17155 7.31327 9.17518 7.28789 9.16064 7.26613C9.12792 7.21537 9.06249 7.2335 9.0225 7.26613C8.90618 7.35316 8.79712 7.44381 8.68443 7.53808C8.32091 7.84629 7.94285 8.13637 7.55389 8.41195C8.38635 7.40392 9.27333 6.37413 9.6732 5.10503C9.70228 4.99625 9.78226 4.7243 9.70228 4.63365C9.64775 4.58651 9.58596 4.65178 9.55324 4.69167C9.21517 5.11228 8.85892 5.5184 8.46268 5.88462C8.61536 5.64531 8.76077 5.39874 8.89164 5.14492C9.10975 4.7098 9.32422 4.27105 9.50235 3.8178C9.71319 3.26302 9.87314 2.69374 10.0404 2.12808C10.2112 1.51166 10.3639 0.887991 10.5493 0.275196C10.5675 0.21718 10.5856 0.159164 10.5965 0.0975219C10.5965 0.0793918 10.6038 0.0576358 10.5965 0.0395058C10.5856 0.00687177 10.5456 -0.0148843 10.5129 -0.00400625C10.4838 0.00324576 10.4548 0.0213758 10.4293 0.0431318C10.0585 0.391228 9.72773 0.779211 9.37148 1.13818C9.10975 1.40651 8.84438 1.67846 8.59355 1.95766C8.08826 2.53057 7.6375 3.15424 7.28125 3.82868C6.95772 4.44147 6.72143 5.10503 6.57602 5.7831C6.37972 6.66784 6.31429 7.57434 6.1907 8.46996C6.04892 8.08198 5.96531 7.67224 5.94714 7.25525C5.93987 7.11746 5.9326 6.97242 5.92533 6.82376C5.92533 6.75486 5.92533 6.6062 5.81991 6.63883C5.78719 6.65696 5.76901 6.69322 5.75084 6.72948C5.71812 6.79475 5.68904 6.86364 5.65996 6.93254C5.56908 7.14285 5.46729 7.3459 5.37278 7.55259C5.10378 8.13275 4.87112 8.73466 4.75116 9.36196C4.64574 9.87685 4.59121 10.4026 4.59121 10.9248C4.59121 11.6572 4.70391 12.3788 4.70027 13.1149C4.50033 12.7922 4.29676 12.4658 4.21316 12.0887C4.16953 11.911 4.13682 11.7334 4.10773 11.5557C4.10046 11.5049 4.08956 11.4505 4.08229 11.3998C4.07502 11.3635 4.07502 11.3164 4.04594 11.291C3.9805 11.2402 3.93688 11.3273 3.92234 11.3816C3.79874 11.7733 3.73695 12.1866 3.72241 12.6C3.70423 13.017 3.74422 13.434 3.7842 13.851C3.82056 14.2281 3.86054 14.6052 3.88599 14.9859C3.86781 15.1237 3.86054 15.2615 3.84964 15.3993C3.80601 16.0773 3.72968 16.7554 3.59881 17.4226C3.51156 17.9592 3.39887 18.4886 3.20984 19.0035C3.10079 19.3697 2.95902 19.7251 2.78089 20.0623C2.75181 20.1094 2.72637 20.1602 2.70092 20.2073C2.34831 20.8346 2.02477 21.4764 1.66853 22.1001C1.45405 22.4663 1.24685 22.8398 1.05418 23.2205C0.912409 23.4671 0.781542 23.7173 0.668851 23.9748C0.570701 24.1923 0.476187 24.4135 0.388942 24.6347C0.356226 24.729 0.261711 24.9175 0.312603 25.0118C0.388942 25.0807 0.45074 24.99 0.497998 24.8921C0.508903 24.8813 0.519809 24.8704 0.527079 24.8595C0.556161 24.8196 0.581607 24.7797 0.603418 24.7362C0.661581 24.6383 0.719744 24.544 0.774272 24.4498C1.01419 24.0328 1.24685 23.6122 1.48313 23.1915C1.83575 22.5389 2.22107 21.9043 2.61004 21.2698C2.67547 21.1646 2.73727 21.0594 2.8027 20.9507C2.88268 20.8346 2.96265 20.7222 3.04626 20.6062C3.1953 20.4031 3.35525 20.2073 3.52974 20.026C3.74422 19.7903 4.01322 19.5619 4.26405 19.3625C4.62757 19.0688 4.95473 18.7352 5.27463 18.398C6.01984 17.5894 6.72143 16.7409 7.44847 15.9141C7.93195 15.334 8.45178 14.7756 9.00796 14.2679C9.41874 13.9235 9.84405 13.5935 10.2766 13.278C10.9673 12.7849 11.6944 12.3462 12.3814 11.8458C13.1921 11.2547 13.9845 10.6383 14.7116 9.94575C14.7334 9.92037 14.7588 9.89136 14.7443 9.8551C14.7297 9.80796 14.6716 9.81521 14.6316 9.82609C14.468 9.8696 14.3117 9.93487 14.1517 9.97476C13.9882 10.011 13.8209 10.0436 13.6574 10.0727C13.2102 10.1597 12.7522 10.1959 12.2978 10.1996C12.5559 10.1017 12.8176 10.0074 13.0794 9.92037C13.7301 9.72456 14.388 9.55777 15.0242 9.31845C16.1547 8.93047 17.1435 8.23427 18.0487 7.46919C18.2704 7.28426 18.4958 7.09933 18.6994 6.89265C18.7357 6.84914 18.7902 6.80925 18.7975 6.74761C18.7975 6.67509 18.7103 6.67509 18.6557 6.6896C18.1468 6.79838 17.6343 6.90353 17.1181 6.95792C16.7764 6.99055 16.4201 7.01594 16.0784 6.95429C16.4746 6.83464 16.8745 6.72948 17.2816 6.64608C17.6597 6.56994 18.0414 6.49742 18.4085 6.38501C18.9793 6.21822 19.4918 5.89188 19.9281 5.49302C20.1898 5.24282 20.4333 4.9745 20.6733 4.70255C20.9277 4.41247 21.1567 4.10063 21.4257 3.82143C21.7784 3.45158 22.1637 3.11436 22.5745 2.8134C22.8798 2.57408 23.207 2.37103 23.5451 2.17885C23.5705 2.16434 23.596 2.15709 23.6214 2.14259C23.6432 2.12808 23.6505 2.1027 23.6396 2.07732H23.625ZM3.75876 19.3045C3.75876 19.3045 3.75876 19.3045 3.75149 19.3045H3.75512H3.75876ZM4.62757 15.4065C4.90747 14.4928 5.17648 13.5754 5.46729 12.6652C5.73993 11.7334 6.01257 10.8015 6.29975 9.87685C6.61965 8.7818 6.87411 7.66862 7.21218 6.57719C7.4521 5.80848 7.72111 5.04702 8.02283 4.30006C8.29547 3.62562 8.60082 2.96206 9.01523 2.36015C8.67716 3.16149 8.32818 3.95559 8.03373 4.77144C7.75019 5.48576 7.51027 6.21459 7.30306 6.95429C6.79777 8.58962 6.49242 10.2793 6.0053 11.9183C5.7981 12.6435 5.56544 13.3614 5.31462 14.0758C5.13649 14.587 4.92565 15.0983 4.75116 15.6096C4.3622 16.7445 4.00231 17.8903 3.55882 19.0071C3.55155 19.0144 3.54428 19.0216 3.53701 19.0289C3.52247 19.0253 3.50793 19.0289 3.49702 19.0325C3.57336 18.7932 3.64607 18.5503 3.70786 18.3073C4.00231 17.3355 4.32585 16.3747 4.62757 15.4065ZM15.5549 6.49379C15.1332 6.78387 14.7116 7.07395 14.3117 7.38941C13.6465 7.91881 12.9994 8.46634 12.356 9.02112C11.9815 9.35471 11.6435 9.72819 11.2909 10.0872C10.9419 10.4498 10.5893 10.8051 10.2585 11.1822C9.81861 11.6717 9.36785 12.154 8.94616 12.6616C8.57538 13.0967 8.2373 13.5609 7.90287 14.025C7.65567 14.355 7.40485 14.6849 7.17219 15.0258C6.89592 15.421 6.60874 15.8054 6.33247 16.2006C6.05619 16.5995 5.78355 16.9983 5.51455 17.4008C5.3437 17.6546 5.17284 17.9121 4.97291 18.1478C4.73662 18.427 4.49306 18.7207 4.22406 18.9781C4.12228 19.0688 4.02413 19.1594 3.92598 19.2537C3.92598 19.2537 3.92598 19.2537 3.92234 19.2537C3.87508 19.2428 3.87508 19.1993 3.88599 19.163C4.07865 18.9491 4.27132 18.7388 4.46035 18.5212C4.68936 18.2565 4.89657 17.9737 5.08923 17.6836C6.11436 16.1897 7.15038 14.6994 8.25184 13.2563C8.66262 12.7233 9.08794 12.1975 9.54597 11.7044C10.3348 10.8704 11.1491 10.0654 11.9634 9.25318C13.0139 8.20889 14.1336 7.22987 15.3514 6.38501C16.322 5.73233 17.3543 5.17393 18.4195 4.69167C17.4234 5.22469 16.4928 5.87375 15.5549 6.49742V6.49379Z" fill="white"/>
<path id="Vector_2" d="M16.4491 24.8411C16.42 24.9027 16.38 24.9571 16.3364 25.0079C15.8784 25.4829 15.2022 25.7295 14.5624 25.8564C13.9154 25.9905 13.2501 25.8673 12.6176 25.7258C13.2465 25.2073 13.9517 24.6018 14.0935 23.7569C14.2316 22.7453 13.2756 22.089 12.3559 22.0454C9.28051 21.9439 6.50323 23.6083 3.8968 25.0478C2.90803 25.588 1.80657 26.2806 0.632404 26.0087C0.468821 25.9615 0.301602 25.8564 0.25071 25.6823C0.254345 25.6352 0.232534 25.5808 0.185277 25.559C-0.178242 25.4865 0.0798562 25.9978 0.247075 26.0884C1.69024 26.9115 3.69686 25.385 4.97281 24.7251C6.28875 24.0071 7.64831 23.2819 9.08057 22.8142C10.2693 22.4624 11.6761 22.0708 12.9012 22.4008C13.5264 22.5821 14.0135 23.2348 13.8136 23.8875C13.5628 24.6417 12.9121 25.1747 12.305 25.6461C11.3489 25.4176 10.3565 25.1674 9.36775 25.3088C8.82247 25.4067 8.19359 25.5989 7.92095 26.1211C7.49563 26.9768 8.56074 27.1436 9.17872 27.1255C10.3383 27.0892 11.4434 26.6142 12.3595 25.9144C13.3992 26.1863 14.4279 26.2879 15.4421 25.86C15.9002 25.6497 16.42 25.4176 16.6672 24.9499C16.7435 24.8085 16.5182 24.6924 16.4455 24.8338L16.4491 24.8411ZM9.146 26.8825C8.81157 26.8572 8.22267 26.9043 8.0809 26.5308C8.05908 26.0594 8.58255 25.7839 8.97515 25.6642C9.9821 25.3596 11.0436 25.6134 12.0396 25.8455C11.1999 26.4583 10.1929 26.8535 9.146 26.8825Z" fill="white"/>
</g>
</g>
</g>
<defs>
<clipPath id="clip0_12554_9351">
<rect width="23.6287" height="27.1334" fill="white"/>
</clipPath>
</defs>
</svg>
