<svg width="20" height="20" viewBox="0 0 20 20" fill="none" xmlns="http://www.w3.org/2000/svg">
<rect width="20" height="20" rx="4" fill="#5534DA"/>
<path fill-rule="evenodd" clip-rule="evenodd" d="M9.55536 12.7418C9.06174 12.6676 8.5996 12.4645 8.22989 12.1435C8.21364 12.1292 8.1974 12.114 8.182 12.0995L8.17911 12.0968C8.14457 12.0653 8.11207 12.0328 8.07957 11.9993C8.04707 11.9658 8.0166 11.9313 7.98613 11.8967L7.9706 11.8786C7.94611 11.85 7.92141 11.8213 7.89878 11.7911C7.55446 11.3493 7.36656 10.8099 7.36656 10.2391C7.36656 9.65206 7.56462 9.09648 7.92823 8.64755C7.93179 8.64297 7.93534 8.63866 7.9389 8.63434C7.94245 8.63002 7.94601 8.62571 7.94956 8.62114C7.99933 8.56121 8.05113 8.50332 8.10699 8.44847C8.22075 8.33471 8.34365 8.23518 8.47366 8.14681L8.47366 8.14681C8.51124 8.12142 8.54882 8.09603 8.58741 8.07368L8.61078 8.05997L8.63414 8.04626C8.9165 7.88781 9.22933 7.78116 9.55638 7.7314C9.77475 7.69889 9.96672 7.58311 10.0977 7.40536C10.2288 7.22762 10.2836 7.00924 10.2501 6.79087C10.2166 6.5725 10.1008 6.37952 9.92406 6.24849C9.75748 6.1256 9.55638 6.07176 9.35223 6.09208V6.09106L9.33394 6.09411C9.32988 6.09462 9.32582 6.09487 9.32175 6.09513C9.31769 6.09538 9.31363 6.09563 9.30957 6.09614C9.23644 6.10731 9.16432 6.12052 9.09221 6.13474C8.28068 6.29115 7.53313 6.68219 6.93692 7.2784C5.30776 8.90756 5.30472 11.5575 6.9288 13.1897L6.93794 13.1988L6.93895 13.1999L6.93997 13.2009C7.59915 13.859 8.44014 14.2684 9.35121 14.3862V14.3811C9.55536 14.4014 9.75748 14.3476 9.92304 14.2247C10.1008 14.0937 10.2166 13.9007 10.2491 13.6823C10.2816 13.4639 10.2277 13.2456 10.0967 13.0678C9.9657 12.8901 9.77374 12.7743 9.55536 12.7418ZM12.1921 8.6445C12.8563 8.6445 13.3967 8.11939 13.3967 7.47443C13.3967 6.81017 12.8563 6.26983 12.1921 6.26983C11.5471 6.26983 11.022 6.81017 11.022 7.47443C11.022 8.11939 11.5471 8.6445 12.1921 8.6445ZM12.0905 11.1268C12.9264 11.1268 13.2342 11.5859 13.3449 11.9709C13.5775 12.7794 13.1082 14.183 12.1535 14.7803L11.9707 14.895V13.4619C11.3765 13.401 10.9194 12.9012 10.9194 12.2969C10.9194 11.6519 11.4456 11.1268 12.0905 11.1268Z" fill="white"/>
</svg>
