<svg width="22" height="22" viewBox="0 0 22 22" fill="none" xmlns="http://www.w3.org/2000/svg">
<rect width="22" height="22" rx="4" fill="#F1EFFD"/>
<path d="M10.2421 11.7588H6.95659C6.74378 11.7588 6.56419 11.6856 6.41781 11.5392C6.27143 11.3928 6.19824 11.2132 6.19824 11.0004C6.19824 10.7876 6.27143 10.608 6.41781 10.4617C6.56419 10.3153 6.74378 10.2421 6.95659 10.2421H10.2421V6.95659C10.2421 6.74378 10.3153 6.56419 10.4617 6.41781C10.608 6.27143 10.7876 6.19824 11.0004 6.19824C11.2132 6.19824 11.3928 6.27143 11.5392 6.41781C11.6856 6.56419 11.7588 6.74378 11.7588 6.95659V10.2421H15.0443C15.2571 10.2421 15.4367 10.3153 15.583 10.4617C15.7294 10.608 15.8026 10.7876 15.8026 11.0004C15.8026 11.2132 15.7294 11.3928 15.583 11.5392C15.4367 11.6856 15.2571 11.7588 15.0443 11.7588H11.7588V15.0443C11.7588 15.2571 11.6856 15.4367 11.5392 15.583C11.3928 15.7294 11.2132 15.8026 11.0004 15.8026C10.7876 15.8026 10.608 15.7294 10.4617 15.583C10.3153 15.4367 10.2421 15.2571 10.2421 15.0443V11.7588Z" fill="#5534DA"/>
</svg>
