<svg width="24" height="24" viewBox="0 0 24 24" fill="none" xmlns="http://www.w3.org/2000/svg">
<path d="M21.2069 11.2782L19.1719 9.2432L17.7569 7.8282L12.7219 2.7932C12.6291 2.70026 12.5189 2.62652 12.3976 2.57621C12.2763 2.5259 12.1462 2.5 12.0149 2.5C11.8836 2.5 11.7535 2.5259 11.6322 2.57621C11.5109 2.62652 11.4007 2.70026 11.3079 2.7932L6.1509 7.9492L4.7359 9.3632C4.4567 9.64142 4.23537 9.97218 4.08467 10.3364C3.93397 10.7006 3.8569 11.091 3.8579 11.4852C3.8579 12.2872 4.1709 13.0412 4.7369 13.6062L5.4439 14.3132L3.3219 16.4352C3.04257 16.7102 2.82136 17.0384 2.67139 17.4006C2.52142 17.7627 2.44576 18.1513 2.4489 18.5432C2.44418 18.9826 2.53709 19.4176 2.72092 19.8167C2.90475 20.2158 3.17491 20.5692 3.5119 20.8512C4.04048 21.2937 4.70856 21.5349 5.3979 21.5322C6.2319 21.5322 7.0519 21.1912 7.6479 20.5952L9.6869 18.5562L10.3939 19.2622C11.5269 20.3952 13.5009 20.3962 14.6359 19.2632L15.3439 18.5562L15.9129 17.9872L16.0509 17.8492L21.2069 12.6922C21.2998 12.5994 21.3736 12.4892 21.4239 12.3679C21.4742 12.2466 21.5001 12.1165 21.5001 11.9852C21.5001 11.8539 21.4742 11.7238 21.4239 11.6025C21.3736 11.4812 21.2998 11.371 21.2069 11.2782ZM13.9299 17.1432L13.2219 17.8492C13.0318 18.0317 12.7784 18.1336 12.5149 18.1336C12.2514 18.1336 11.998 18.0317 11.8079 17.8492L10.3939 16.4362C10.3011 16.3433 10.1909 16.2695 10.0696 16.2192C9.94828 16.1689 9.81824 16.143 9.6869 16.143C9.55557 16.143 9.42552 16.1689 9.30421 16.2192C9.18289 16.2695 9.07269 16.3433 8.9799 16.4362L6.2339 19.1812C6.01251 19.4041 5.71207 19.5306 5.3979 19.5332C5.18118 19.5366 4.9703 19.4629 4.8029 19.3252C4.68848 19.2302 4.59716 19.1105 4.53583 18.975C4.4745 18.8395 4.44478 18.6919 4.4489 18.5432C4.44763 18.4145 4.47239 18.2868 4.52171 18.1679C4.57103 18.049 4.64389 17.9412 4.7359 17.8512L7.5649 15.0222C7.65785 14.9294 7.73159 14.8192 7.7819 14.6979C7.83221 14.5766 7.8581 14.4465 7.8581 14.3152C7.8581 14.1839 7.83221 14.0538 7.7819 13.9325C7.73159 13.8112 7.65785 13.701 7.5649 13.6082L6.1509 12.1932C5.9619 12.0052 5.8579 11.7552 5.8579 11.4872C5.8579 11.2192 5.9619 10.9682 6.1509 10.7792L6.8579 10.0722L10.3939 13.6082L13.9299 17.1432Z" fill="black"/>
</svg>
