<svg width="28" height="28" viewBox="0 0 28 28" fill="none" xmlns="http://www.w3.org/2000/svg">
<g id="add_FILL0_wght500_GRAD0_opsz24 1">
<path id="Vector" d="M12.6724 15.3266H6.92282C6.5504 15.3266 6.23611 15.1985 5.97994 14.9424C5.72378 14.6862 5.5957 14.3719 5.5957 13.9995C5.5957 13.6271 5.72378 13.3128 5.97994 13.0567C6.23611 12.8005 6.5504 12.6724 6.92282 12.6724H12.6724V6.92282C12.6724 6.5504 12.8005 6.23611 13.0567 5.97995C13.3128 5.72378 13.6271 5.5957 13.9995 5.5957C14.3719 5.5957 14.6862 5.72378 14.9424 5.97995C15.1985 6.23611 15.3266 6.5504 15.3266 6.92282V12.6724H21.0762C21.4487 12.6724 21.7629 12.8005 22.0191 13.0567C22.2753 13.3128 22.4033 13.6271 22.4033 13.9995C22.4033 14.3719 22.2753 14.6862 22.0191 14.9424C21.7629 15.1985 21.4487 15.3266 21.0762 15.3266H15.3266V21.0762C15.3266 21.4487 15.1985 21.7629 14.9424 22.0191C14.6862 22.2753 14.3719 22.4033 13.9995 22.4033C13.6271 22.4033 13.3128 22.2753 13.0567 22.0191C12.8005 21.7629 12.6724 21.4487 12.6724 21.0762V15.3266Z" fill="#5534DA"/>
</g>
</svg>
